# xmcd
#
# Track frame offsets: 
#        150
#        16048
#        29021
#        46460
#        62113
#        78274
#        92421
#
# Disc length: 1400 seconds
#
# Revision: 0
# Processed by: cddbd v1.5.2PL0 Copyright (c) Steve Scherf et al.
# Submitted via: ExactAudioCopyFreeDBPlugin 1.0
#
DISCID=4b057607
DTITLE=LaCinda Thackeray - LaCinda Thackeray
DYEAR=2011
DGENRE=Country
TTITLE0=I Wish it Would Rain
TTITLE1=Welcome to My Heart
TTITLE2=Ashley
TTITLE3=Colorado Feelin
TTITLE4=He Dreamed My Name
TTITLE5=Sometimes You Gotta Laugh
TTITLE6=Country Girls
EXTD=
EXTT0=
EXTT1=
EXTT2=
EXTT3=
EXTT4=
EXTT5=
EXTT6=
PLAYORDER=
